<svg width="700" height="700" viewBox="0 0 700 700" fill="none" xmlns="http://www.w3.org/2000/svg">
<g clip-path="url(#clip0_323_4)">
<path d="M153.018 423.203C7.80328 238.203 51.3513 -154.797 109.518 -251.797C310.851 -300.964 794.432 -246.876 1005.23 -188.876C1216.03 -130.876 985.518 336.703 859.018 522.203C666.685 625.203 307.322 619.781 153.018 423.203Z" fill="#FF662E" fill-opacity="0.4"/>
<path d="M297.08 186.744C157.48 -42.0557 238.914 -263.447 297.08 -360.447C498.414 -409.613 975.361 -500.256 1186.16 -442.256C1396.96 -384.256 1161.07 79.0532 1034.57 264.553C842.232 367.553 436.68 415.544 297.08 186.744Z" fill="#FF662E" fill-opacity="0.4"/>
<path d="M218.08 278.044C78.4803 49.244 159.914 -227.765 218.08 -324.765C419.414 -373.931 524.7 -158.52 735.5 -100.52C946.3 -42.5201 1150.07 204.044 1023.57 389.544C831.233 492.544 357.68 506.844 218.08 278.044Z" fill="#FF662E" fill-opacity="0.4"/>
</g>
<defs>
<clipPath id="clip0_323_4">
<rect width="700" height="700" fill="white"/>
</clipPath>
</defs>
</svg>
