<svg width="700" height="700" viewBox="0 0 700 700" fill="none" xmlns="http://www.w3.org/2000/svg">
<g clip-path="url(#clip0_316_18)">
<path d="M61.6968 579.921C-77.9032 351.121 54.9478 48.73 113.114 -48.27C314.448 -97.4367 718.396 -130.079 929.196 -72.0788C1140 -14.0788 939.696 371.421 813.196 556.921C620.863 659.921 201.297 808.721 61.6968 579.921Z" fill="#FF662E" fill-opacity="0.4"/>
<path d="M370.08 299.691C230.48 70.8912 311.914 -180.309 370.08 -277.309C571.414 -326.475 1026.78 -410.309 1237.58 -352.309C1448.38 -294.309 1248.08 91.1912 1121.58 276.691C929.247 379.691 509.68 528.491 370.08 299.691Z" fill="#FF662E" fill-opacity="0.4"/>
<path d="M224.08 457.691C84.4804 228.891 165.914 -22.3088 224.08 -119.309C425.414 -168.475 880.78 -252.309 1091.58 -194.309C1302.38 -136.309 1102.08 249.191 975.58 434.691C783.247 537.691 363.68 686.491 224.08 457.691Z" fill="#FF662E" fill-opacity="0.4"/>
</g>
<defs>
<clipPath id="clip0_316_18">
<rect width="700" height="700" fill="white"/>
</clipPath>
</defs>
</svg>
