<svg width="700" height="700" viewBox="0 0 700 700" fill="none" xmlns="http://www.w3.org/2000/svg">
<g clip-path="url(#clip0_323_9)">
<path d="M120.079 638.303C348.879 777.903 651.27 645.052 748.27 586.886C797.437 385.552 830.079 -18.3965 772.079 -229.196C714.079 -439.996 328.579 -239.696 143.079 -113.196C40.0789 79.1368 -108.721 498.703 120.079 638.303Z" fill="#FF662E" fill-opacity="0.4"/>
<path d="M400.309 329.92C629.109 469.52 880.309 388.086 977.309 329.92C1026.48 128.586 1110.31 -326.78 1052.31 -537.58C994.309 -748.38 608.809 -548.08 423.309 -421.58C320.309 -229.247 171.509 190.32 400.309 329.92Z" fill="#FF662E" fill-opacity="0.4"/>
<path d="M242.309 475.92C471.109 615.52 722.309 534.086 819.309 475.92C868.475 274.586 952.309 -180.78 894.309 -391.58C836.309 -602.38 450.809 -402.08 265.309 -275.58C162.309 -83.2468 13.5089 336.32 242.309 475.92Z" fill="#FF662E" fill-opacity="0.4"/>
</g>
<defs>
<clipPath id="clip0_323_9">
<rect width="700" height="700" fill="white" transform="matrix(0 -1 -1 0 700 700)"/>
</clipPath>
</defs>
</svg>
